<svg width="228" height="228" viewBox="0 0 228 228" fill="none" xmlns="http://www.w3.org/2000/svg">
<path fill-rule="evenodd" clip-rule="evenodd" d="M80.5671 3.73236C101.806 4.97966 111.947 14.7837 163.775 15.5522C211.811 16.2603 228.923 54.1083 217.967 132.528C208.463 200.567 169.247 227.352 99.0821 222.695C28.9171 218.039 5.50686 141.697 7.29599 95.7599C10.1742 21.5392 47.0149 1.75145 80.5671 3.73236Z" fill="#D7DEEA"/>
<path d="M129.418 155.292C129.418 155.292 81.8144 159.767 74.6029 159.299C70.9066 170.699 68.1706 190.487 66.179 214.08C75.767 218.807 86.6855 221.868 99.07 222.683C118.355 223.967 135.287 222.851 149.926 219.179C149.734 217.92 149.53 216.659 149.327 215.399C143.483 179.519 129.418 155.292 129.418 155.292Z" fill="#949399"/>
<path d="M67.1031 203.963C67.1031 203.963 66.6833 208.584 66.2273 214.104C72.1674 217.032 78.6238 219.312 85.6194 220.811C118.764 213.731 146.328 200.567 146.328 200.567C144.887 200.652 67.1031 203.963 67.1031 203.963Z" fill="#85868B"/>
<path fill-rule="evenodd" clip-rule="evenodd" d="M118.27 112.2C118.27 112.2 136.282 141.671 154.583 153.648C160.654 157.619 169.679 160.32 173.747 158.279C178.727 155.795 176.842 137.94 170.579 129.912C163.031 120.239 149.663 101.64 144.262 95.8551C136.163 87.1669 111.454 92.7114 118.27 112.2Z" fill="#F8BEAE"/>
<path fill-rule="evenodd" clip-rule="evenodd" d="M63.7073 211.067C63.7073 211.067 117.659 210.672 153.947 201.54C146.796 170.471 134.579 121.907 130.368 82.619C115.235 80.9639 79.6673 83.9038 63.7435 90.6231C63.5021 98.6997 72.7307 119.365 65.6158 130.008C64.7628 152.423 63.7073 211.067 63.7073 211.067Z" fill="white"/>
<path fill-rule="evenodd" clip-rule="evenodd" d="M121.162 82.0436C116.28 102.922 99.5755 112.235 81.2041 85.8217C84.7797 85.1015 88.2962 82.9422 88.8247 78.6584C89.844 70.4142 89.1962 60.1542 89.1962 60.1542L114.996 57.4424C114.996 57.4424 113.074 82.0074 121.162 82.0436Z" fill="#F2AFA0"/>
<path fill-rule="evenodd" clip-rule="evenodd" d="M134.591 152.004C134.591 152.004 158.555 133.296 169.043 122.963C152.891 94.7517 143.963 81.9957 125.747 82.4276C117.576 82.6194 119.039 107.424 118.894 112.884C118.559 125.723 134.591 152.004 134.591 152.004Z" fill="white"/>
<path d="M136.175 110.4C136.175 110.4 138.324 132.264 141.371 146.628" stroke="#E5E7E9" stroke-width="0.895" stroke-miterlimit="10" stroke-linecap="round"/>
<path fill-rule="evenodd" clip-rule="evenodd" d="M167.807 93.1073C166.475 91.176 162.516 88.9201 162.504 79.4514C162.491 69.3362 158.88 65.9283 159.336 65.5796C161.735 63.7194 165.335 63.2393 170.147 76.1883C174.84 66.3843 174.743 52.369 180.431 51.6716C182.459 51.4195 178.895 62.7833 178.823 68.1359C184.235 58.9193 185.855 51.2277 191.028 51.9841C193.308 52.3194 187.836 59.3874 184.139 71.2193C188.183 63.4807 196.151 54.3607 199.26 56.4717C199.967 56.9518 188.496 74.0277 188.615 75.9952C192.648 75.0242 200.82 66.0477 202.595 68.8561C204.443 71.7718 194.507 77.3511 191.567 80.8328C189.743 82.9921 186.539 89.7838 184.644 92.2677C181.248 96.6721 172.463 96.8639 167.807 93.1073Z" fill="#F8BEAE"/>
<path fill-rule="evenodd" clip-rule="evenodd" d="M83.5552 120.455C83.5552 120.455 83.5914 135.48 85.6555 153.311C100.27 153.551 131.219 149.231 131.219 149.231C131.219 149.231 128.47 126.78 128.35 115.919C105.958 115.57 83.5552 120.455 83.5552 120.455Z" fill="#229E38"/>
<path d="M99.1423 130.812L114.575 128.796M92.0864 126.78C93.8863 126.539 96.7899 126.348 98.0748 129.204C98.9506 131.159 100.379 134.928 101.182 137.111C101.358 137.587 101.69 137.988 102.124 138.25C102.557 138.511 103.067 138.618 103.57 138.552L113.698 137.232C114.183 137.17 114.634 136.951 114.983 136.609C115.331 136.266 115.558 135.819 115.629 135.336L116.398 130.104M104.518 145.991C104.718 145.991 104.916 145.952 105.101 145.876C105.286 145.799 105.454 145.687 105.596 145.546C105.737 145.405 105.849 145.237 105.926 145.052C106.003 144.867 106.043 144.669 106.043 144.469C106.043 144.269 106.004 144.071 105.927 143.886C105.851 143.701 105.739 143.533 105.597 143.391C105.456 143.25 105.288 143.137 105.103 143.061C104.919 142.984 104.721 142.944 104.52 142.944C104.116 142.944 103.729 143.104 103.443 143.39C103.157 143.675 102.996 144.063 102.996 144.467C102.996 144.871 103.156 145.259 103.442 145.545C103.728 145.83 104.114 145.991 104.518 145.991ZM114.168 144.732C114.572 144.732 114.96 144.571 115.245 144.285C115.531 144 115.692 143.612 115.692 143.208C115.692 142.803 115.531 142.416 115.245 142.13C114.96 141.844 114.572 141.683 114.168 141.683C113.763 141.683 113.376 141.844 113.09 142.13C112.804 142.416 112.643 142.803 112.643 143.208C112.643 143.612 112.804 144 113.09 144.285C113.376 144.571 113.763 144.732 114.168 144.732Z" stroke="white" stroke-width="0.895" stroke-miterlimit="10" stroke-linecap="round"/>
<path d="M170.135 76.188C170.135 76.188 174.419 79.9674 175.799 84.7675" stroke="#E18F78" stroke-width="0.895" stroke-miterlimit="10" stroke-linecap="round" stroke-linejoin="round"/>
<path d="M78.3234 43.3201C57.79 63.0958 71.5196 65.4603 82.2236 67.5244C100.103 70.9913 107.988 65.3758 119.723 39.5514C114.563 33.5886 107.147 31.7163 99.2994 32.5196C91.4509 33.3364 81.4189 37.5719 78.3234 43.3201Z" fill="#229E38"/>
<path d="M119.975 39.539C119.327 33.2033 110.363 29.0041 98.0385 30.2755C85.7145 31.5469 76.6428 37.6077 77.3026 43.9434C77.9504 50.2791 88.1983 56.3037 100.522 55.0189C112.848 53.7353 120.623 45.8761 119.975 39.539Z" fill="#E5E7E9"/>
<path fill-rule="evenodd" clip-rule="evenodd" d="M81.7903 43.3911C82.882 54.2278 84.0341 65.436 87.0101 68.7353C92.2675 74.5802 95.6621 77.8191 101.723 77.4476C106.967 77.123 110.074 76.1399 115.942 65.7472C118.066 61.9785 117.526 52.2952 117.251 41.1714C116.831 24.0714 108.311 25.6433 98.5188 26.2562C88.7268 26.8691 80.087 26.3769 81.7903 43.3911Z" fill="#F8BEAE"/>
<path d="M79.9785 47.8435C79.6842 45.809 79.4721 43.7634 79.3428 41.7117C78.707 31.559 80.759 24.5393 85.1997 21.6477C88.511 19.4991 96.8988 19.6198 105.839 17.5303C110.879 19.7392 117.671 22.608 119.459 39.2037C119.675 41.2195 119.628 43.1159 119.604 44.8675L117.467 44.7951C114.107 29.22 109.535 29.5794 98.6396 29.7605C87.5883 30.9112 85.0803 31.5348 82.0198 47.016L79.9785 47.8435Z" fill="#855F4E"/>
<path fill-rule="evenodd" clip-rule="evenodd" d="M85.8836 60.2873C89.0756 59.3163 87.6714 49.0563 82.7265 46.8956C77.7829 44.7471 74.5788 48.8752 76.2218 53.6994C78.4669 60.2873 84.348 60.7433 85.8836 60.2873ZM114.299 57.5875C111 57.1073 110.831 46.7508 115.391 43.8834C119.951 41.0159 123.754 44.6036 122.856 49.6196C121.619 56.473 115.871 57.8155 114.299 57.5875Z" fill="#F8BEAE"/>
<path d="M94.3316 43.5599C93.2747 43.3319 91.0551 43.8121 90.0948 45.0486C89.7354 45.396 90.2155 46.4877 90.8029 46.2825C91.4869 46.0438 92.8911 45.5985 94.2712 45.4912C95.1229 45.4202 95.2208 43.7638 94.3316 43.5599ZM102.982 42.3234C103.908 41.567 106.319 41.5079 107.507 42.5272C107.939 42.7914 107.578 44.1594 107.015 43.9086C106.318 43.6082 104.927 43.2595 103.559 43.8711C103.089 44.087 102.467 42.7445 102.982 42.3234ZM92.6672 52.8114C93.5631 52.7148 94.1948 51.7545 94.0767 50.6682C93.96 49.5805 93.1379 48.7771 92.242 48.8737C91.3461 48.9703 90.7144 49.9305 90.8324 51.0169C90.9491 52.1046 91.7713 52.9079 92.6672 52.8114Z" fill="#855F4E"/>
<path d="M105.274 29.7005C105.274 29.7005 96.6706 28.7161 88.751 32.2554" stroke="#E5E7E9" stroke-width="0.855" stroke-miterlimit="10" stroke-linecap="round"/>
<path d="M119.975 39.5392C118.127 21.5635 111.131 15.1674 96.4547 16.6802C82.0666 18.1676 73.3194 26.051 77.3027 43.9437C79.5116 40.0194 85.2707 36.2882 89.7475 33.0962C89.5195 27.0113 90.8513 24.3357 96.1181 23.4357C99.9713 22.788 103.595 24.0473 104.627 30.8994C107.832 31.3312 112.403 31.8476 119.975 39.5392Z" fill="white"/>
<path d="M96.4307 27.4809C96.4307 27.4809 102.707 24.8763 108.743 25.5952M99.5623 27.2878C99.5623 27.2878 102.347 27.4205 105.191 28.3795" stroke="#855F4E" stroke-width="0.855" stroke-miterlimit="10" stroke-linecap="round"/>
<path d="M70.0308 120.263C70.4144 104.328 49.0548 109.14 46.4395 124.416C42.5743 146.915 42.8626 171.444 43.1751 180.395C43.3307 184.932 44.4586 192.168 45.887 200.015C52.1503 205.848 59.2665 210.828 67.319 214.643C66.407 201.179 65.6988 187.475 65.7109 181.26C65.7109 178.524 69.9222 124.944 70.0308 120.263Z" fill="#F8BEAE"/>
<path fill-rule="evenodd" clip-rule="evenodd" d="M35.0745 146.148C47.1115 148.584 80.3392 154.092 80.3392 154.092C80.3392 154.092 87.9114 104.148 82.9907 95.8914C78.8625 88.9669 67.822 88.1273 60.6829 91.884C48.1308 98.496 39.9107 125.963 35.0745 146.148Z" fill="white"/>
<path fill-rule="evenodd" clip-rule="evenodd" d="M168.011 91.2834C165.827 105.419 158.027 136.908 160.031 142.152C162.046 147.408 165.323 158.424 172.379 158.568C177.623 158.676 184.368 144.096 184.799 131.244C185.435 112.416 184.523 94.4285 184.079 90.3714C183.623 86.3398 169.199 83.5797 168.011 91.2834Z" fill="#F8BEAE"/>
<path d="M162.696 118.152C162.696 118.152 159.588 133.632 159.804 137.892" stroke="#E18F78" stroke-width="0.895" stroke-miterlimit="10" stroke-linecap="round" stroke-linejoin="round"/>
<path d="M78.011 89.6643C78.011 89.6643 88.3313 105.911 103.678 105.911C118.799 105.925 124.043 86.3999 124.043 86.3999" stroke="#E5E7E9" stroke-width="0.895" stroke-miterlimit="10" stroke-linecap="round"/>
<path d="M98.9627 50.2915C99.6587 52.3676 99.1424 55.2834 97.7502 56.4958C97.7502 56.4958 99.4307 57.6479 100.678 57.444" stroke="#E18F78" stroke-width="0.895" stroke-miterlimit="10" stroke-linecap="round" stroke-linejoin="round"/>
<path d="M93.071 50.64C93.2334 50.64 93.3891 50.5755 93.5039 50.4607C93.6187 50.3459 93.6832 50.1901 93.6832 50.0278C93.6832 49.8654 93.6187 49.7097 93.5039 49.5948C93.3891 49.48 93.2334 49.4155 93.071 49.4155C92.9086 49.4155 92.7529 49.48 92.6381 49.5948C92.5232 49.7097 92.4587 49.8654 92.4587 50.0278C92.4587 50.1901 92.5232 50.3459 92.6381 50.4607C92.7529 50.5755 92.9086 50.64 93.071 50.64Z" fill="white"/>
<path d="M97.7502 64.2356C97.7502 64.2356 103.079 65.3877 105.803 61.104" stroke="#E18F78" stroke-width="0.895" stroke-miterlimit="10" stroke-linecap="round" stroke-linejoin="round"/>
<path d="M120.491 45.7798C120.491 45.7798 118.258 46.2116 117.431 49.0791M79.2354 50.0273C79.2354 50.0273 81.4671 50.4592 82.2946 53.3266" stroke="#EBAD9A" stroke-width="0.895" stroke-miterlimit="10" stroke-linecap="round" stroke-linejoin="round"/>
<path d="M106.011 51.7923C106.906 51.6957 107.539 50.7354 107.421 49.6477C107.303 48.56 106.483 47.758 105.587 47.8546C104.691 47.9511 104.058 48.9114 104.176 49.9978C104.294 51.0855 105.115 51.8888 106.011 51.7923Z" fill="#855F4E"/>
<path d="M106.416 49.6074C106.578 49.6074 106.734 49.543 106.848 49.4283C106.963 49.3136 107.027 49.1581 107.027 48.9959C107.027 48.8337 106.963 48.6781 106.848 48.5634C106.734 48.4487 106.578 48.3843 106.416 48.3843C106.254 48.3843 106.098 48.4487 105.983 48.5634C105.869 48.6781 105.804 48.8337 105.804 48.9959C105.804 49.1581 105.869 49.3136 105.983 49.4283C106.098 49.543 106.254 49.6074 106.416 49.6074Z" fill="white"/>
</svg>
