<svg width="24" height="16" viewBox="0 0 24 16" fill="none" xmlns="http://www.w3.org/2000/svg">
<path fill-rule="evenodd" clip-rule="evenodd" d="M23.405 12.8643C22.861 11.7688 22.1442 10.768 21.282 9.90032C20.9936 9.57444 20.6917 9.26083 20.377 8.96032L20.339 8.92332C20.2222 8.81017 20.1068 8.69549 19.993 8.57932C21.1716 6.94009 22.1802 5.18502 23.003 3.34132L23.036 3.26732L23.059 3.18932C23.168 2.82632 23.292 2.13632 22.852 1.51232C22.396 0.868315 21.667 0.752315 21.178 0.752315H18.931C18.4605 0.730874 17.9953 0.858813 17.6019 1.11782C17.2086 1.37683 16.9072 1.75364 16.741 2.19432C16.2574 3.34596 15.652 4.44253 14.935 5.46531V2.83232C14.935 2.49232 14.903 1.92232 14.538 1.44231C14.102 0.866315 13.471 0.752315 13.033 0.752315H9.467C9.00167 0.741608 8.55005 0.910276 8.20567 1.22339C7.86128 1.5365 7.65051 1.97007 7.617 2.43432L7.614 2.47932V2.52432C7.614 3.00932 7.806 3.36732 7.96 3.59231C8.029 3.69332 8.102 3.78531 8.149 3.84331L8.159 3.85631C8.209 3.91831 8.242 3.95931 8.275 4.00531C8.363 4.12331 8.488 4.30731 8.524 4.78131V6.25432C7.80818 5.05564 7.22124 3.78455 6.773 2.46231L6.765 2.44032L6.757 2.41932C6.635 2.10032 6.44 1.63632 6.049 1.28232C5.593 0.867315 5.053 0.752315 4.562 0.752315H2.282C1.785 0.752315 1.186 0.868315 0.739 1.33932C0.3 1.80332 0.25 2.35931 0.25 2.65331V2.78732L0.278 2.91732C0.909301 5.84809 2.21024 8.59302 4.079 10.9373C4.93338 12.2846 6.09329 13.4116 7.46465 14.2268C8.83601 15.042 10.3802 15.5225 11.972 15.6293L12.013 15.6323H12.055C12.781 15.6323 13.538 15.5693 14.107 15.1903C14.874 14.6783 14.935 13.8933 14.935 13.5013V12.3633C15.132 12.5233 15.376 12.7373 15.675 13.0253C16.037 13.3873 16.325 13.7013 16.572 13.9753L16.704 14.1213C16.896 14.3353 17.085 14.5463 17.257 14.7193C17.473 14.9363 17.74 15.1753 18.074 15.3523C18.437 15.5433 18.818 15.6303 19.222 15.6303H21.503C21.984 15.6303 22.673 15.5163 23.158 14.9543C23.686 14.3423 23.646 13.5913 23.48 13.0523L23.45 12.9553L23.405 12.8643ZM17.685 12.9703C17.3751 12.6239 17.056 12.2857 16.728 11.9563L16.725 11.9533C15.368 10.6453 14.735 10.4183 14.287 10.4183C14.048 10.4183 13.785 10.4443 13.614 10.6583C13.537 10.7604 13.4865 10.88 13.467 11.0063C13.4429 11.153 13.4322 11.3017 13.435 11.4503V13.5013C13.435 13.7563 13.393 13.8633 13.275 13.9413C13.118 14.0463 12.783 14.1313 12.064 14.1313C10.6982 14.0384 9.37398 13.6226 8.20018 12.9182C7.02637 12.2138 6.03652 11.2408 5.312 10.0793L5.304 10.0663L5.294 10.0543C3.55312 7.88747 2.33984 5.34556 1.75 2.62932C1.754 2.49932 1.782 2.42032 1.828 2.37232C1.875 2.32232 1.99 2.25231 2.282 2.25231H4.562C4.815 2.25231 4.947 2.30832 5.042 2.39332C5.148 2.49132 5.242 2.65632 5.354 2.95032C5.914 4.59632 6.67 6.13632 7.387 7.26832C7.745 7.83332 8.097 8.30431 8.415 8.63731C8.574 8.80332 8.729 8.94132 8.878 9.03932C9.021 9.13332 9.184 9.20831 9.352 9.20831C9.44 9.20831 9.543 9.19832 9.642 9.15532C9.74892 9.10809 9.83693 9.02641 9.892 8.92332C9.995 8.73531 10.024 8.45831 10.024 8.09531V4.72231C9.971 3.90431 9.724 3.44332 9.484 3.11632C9.4354 3.05091 9.38538 2.98656 9.334 2.92331L9.321 2.90732C9.27836 2.85552 9.23766 2.80215 9.199 2.74732C9.14977 2.68616 9.12015 2.61158 9.114 2.53332C9.12185 2.45385 9.15976 2.38039 9.21999 2.32797C9.28022 2.27554 9.35821 2.24812 9.438 2.25131H13.033C13.239 2.25131 13.308 2.30132 13.343 2.34832C13.393 2.41332 13.435 2.54832 13.435 2.83232V7.36032C13.435 7.89832 13.683 8.26231 14.043 8.26231C14.457 8.26231 14.756 8.01131 15.278 7.48932L15.287 7.47931L15.295 7.47031C16.466 6.0426 17.4227 4.45189 18.135 2.74832L18.139 2.73632C18.1925 2.5858 18.2938 2.45693 18.4274 2.36936C18.561 2.28179 18.7196 2.24033 18.879 2.25131H21.179C21.491 2.25131 21.593 2.33132 21.627 2.37832C21.662 2.42832 21.687 2.53531 21.627 2.74531C20.8056 4.58167 19.7901 6.32492 18.598 7.94532L18.59 7.95732C18.475 8.13432 18.348 8.33032 18.33 8.55432C18.31 8.79632 18.414 9.01532 18.597 9.25132C18.73 9.44732 19.005 9.71632 19.284 9.98932L19.31 10.0153C19.602 10.3013 19.919 10.6113 20.173 10.9113L20.18 10.9183L20.187 10.9263C20.9444 11.6818 21.5743 12.5551 22.052 13.5123C22.128 13.7723 22.082 13.9063 22.022 13.9753C21.953 14.0553 21.798 14.1303 21.504 14.1303H19.222C19.0665 14.1341 18.9126 14.0979 18.775 14.0253C18.6064 13.9272 18.4534 13.8046 18.321 13.6613C18.178 13.5183 18.023 13.3453 17.833 13.1343L17.685 12.9703Z" fill="white"/>
</svg>
