<svg width="96" height="96" fill="none" xmlns="http://www.w3.org/2000/svg"><rect width="96" height="96" fill="black"/><path d="M59.6565 46.1096C59.9127 46.1096 60.1216 45.9012 60.1128 45.6445C60.0575 44.0414 59.7196 42.46 59.1125 40.9758C58.4473 39.3482 57.4717 37.8693 56.2421 36.6236C55.0125 35.3779 53.5527 34.3897 51.9461 33.7155C50.3395 33.0413 48.6175 32.6943 46.8786 32.6943C45.1396 32.6943 43.4177 33.0413 41.8111 33.7155C40.2045 34.3897 38.7447 35.3779 37.5151 36.6236C36.2855 37.8693 35.3101 39.3482 34.6446 40.9758C34.0378 42.46 33.6995 44.0414 33.6446 45.6445C33.6358 45.9012 33.8444 46.1096 34.1008 46.1096H59.6565Z" fill="white"/><path d="M33.6443 50.1335C33.6443 49.3926 34.2007 48.792 34.8869 48.792H59.0368C59.723 48.792 60.2795 49.3926 60.2795 50.1335C60.2795 50.8744 59.723 51.475 59.0368 51.475H34.8869C34.2007 51.475 33.6443 50.8744 33.6443 50.1335Z" fill="white"/><path d="M59.2727 59.292C59.8834 57.8078 60.2237 56.2264 60.2792 54.6233C60.288 54.3666 60.0813 54.1582 59.8278 54.1582H34.0958C33.8422 54.1582 33.6357 54.3666 33.6446 54.6233C33.6998 56.2264 34.0402 57.8078 34.6509 59.292C35.0493 60.2603 35.558 61.1759 36.1654 62.0212C36.2502 62.1392 36.3863 62.2073 36.5303 62.2073H57.3933C57.5374 62.2073 57.6733 62.1392 57.7582 62.0212C58.3658 61.1759 58.8745 60.2603 59.2727 59.292Z" fill="white"/><path d="M75.0417 23.5H20.9583C16.7936 23.5 13.5 26.9737 13.5 31.1552V62.4048C13.5 66.5863 16.7936 70.06 20.9583 70.06H75.0417C79.2064 70.06 82.5 66.5863 82.5 62.4048V31.1552C82.5 26.9737 79.2064 23.5 75.0417 23.5Z" stroke="white" stroke-width="3"/></svg>