<svg width="16" height="20" fill="none" xmlns="http://www.w3.org/2000/svg"><path d="M15 7.44241C15 8.20332 14.6091 9.31364 13.8729 10.6584C13.1566 11.9667 12.1896 13.3635 11.2046 14.6566C10.2225 15.946 9.23807 17.1121 8.49794 17.957C8.31569 18.165 8.14852 18.3533 8.00016 18.5188C7.85178 18.3533 7.6846 18.165 7.50234 17.9569C6.76218 17.112 5.77772 15.9459 4.79558 14.6566C3.81054 13.3635 2.84347 11.9667 2.12718 10.6584C1.39096 9.31362 1 8.20331 1 7.44241C1 3.95118 4.06474 1 8 1C11.9353 1 15 3.95118 15 7.44241Z" stroke="white" stroke-width="2"/></svg>