<svg width="56" height="39" fill="none" xmlns="http://www.w3.org/2000/svg"><path d="M36.8307 18.9921C37.0248 18.9921 37.1831 18.8343 37.1764 18.6398C37.1345 17.4254 36.8785 16.2273 36.4186 15.1029C35.9147 13.8699 35.1756 12.7495 34.244 11.8058C33.3125 10.8621 32.2066 10.1134 30.9895 9.60272C29.7724 9.09199 28.4679 8.8291 27.1505 8.8291C25.8331 8.8291 24.5286 9.09199 23.3115 9.60272C22.0944 10.1134 20.9885 10.8621 20.0569 11.8058C19.1254 12.7495 18.3865 13.8699 17.8823 15.1029C17.4226 16.2273 17.1663 17.4254 17.1247 18.6398C17.1181 18.8343 17.2761 18.9921 17.4704 18.9921H36.8307Z" fill="white"/><path d="M17.1245 22.0407C17.1245 21.4795 17.546 21.0244 18.0659 21.0244H36.3613C36.8811 21.0244 37.3027 21.4795 37.3027 22.0407C37.3027 22.602 36.8811 23.057 36.3613 23.057H18.0659C17.546 23.057 17.1245 22.602 17.1245 22.0407Z" fill="white"/><path d="M36.54 28.9791C37.0026 27.8547 37.2604 26.6566 37.3025 25.4422C37.3091 25.2477 37.1526 25.0898 36.9605 25.0898H17.4665C17.2744 25.0898 17.118 25.2477 17.1247 25.4422C17.1666 26.6566 17.4245 27.8547 17.8871 28.9791C18.1889 29.7126 18.5743 30.4063 19.0344 31.0466C19.0987 31.136 19.2018 31.1877 19.3109 31.1877H35.1162C35.2253 31.1877 35.3283 31.136 35.3927 31.0466C35.8529 30.4063 36.2383 29.7126 36.54 28.9791Z" fill="white"/><path d="M48.4861 1.5H7.51389C4.14692 1.5 1.5 4.30563 1.5 7.66304V31.337C1.5 34.6944 4.14692 37.5 7.51389 37.5H48.4861C51.8531 37.5 54.5 34.6944 54.5 31.337V7.66304C54.5 4.30563 51.8531 1.5 48.4861 1.5Z" stroke="white" stroke-width="3"/></svg>