<svg width="32" height="32" fill="none" xmlns="http://www.w3.org/2000/svg"><path d="M32 16C32 24.8366 24.8366 32 16 32C7.16344 32 0 24.8366 0 16C0 7.16344 7.16344 0 16 0C24.8366 0 32 7.16344 32 16Z" fill="#FF0000"/><path d="M20.6633 4H17.1703C13.7383 4 11.0003 6.72 11.0003 12C11.0003 15.168 12.2373 17.504 14.7493 18.656L10.0613 27.488C9.90825 27.777 10.0613 28 10.3063 28H12.4813C12.6653 28 12.7883 27.936 12.8493 27.777L17.2503 19H18.5003L18.4923 27.777C18.4923 27.873 18.5843 28 18.7063 28H20.7553C20.9393 28 21.0003 27.904 21.0003 27.745V4.32C21.0003 4.096 20.8773 4 20.6633 4ZM18.5003 17H17.0003C15.5003 17 13.5003 15.84 13.5003 12C13.5003 7.999 15.1313 6 17.0003 6H18.5003V17Z" fill="white"/></svg>